<?xml version="1.0" encoding="utf-8"?>
<!-- Generator: Adobe Illustrator 21.1.0, SVG Export Plug-In . SVG Version: 6.00 Build 0)  -->
<svg version="1.1" id="Layer_1" xmlns="http://www.w3.org/2000/svg" xmlns:xlink="http://www.w3.org/1999/xlink" x="0px" y="0px"
	 viewBox="0 0 400 100" style="enable-background:new 0 0 400 100;" xml:space="preserve">
<style type="text/css">
	.st0{fill-rule:evenodd;clip-rule:evenodd;fill:#2A2D2F;}
</style>
<g>
	<path class="st0" d="M80.3,56.9L55.8,71.1V42.8l12.3-7.1l12.2-7V56.9L80.3,56.9z M52.6,44.6v26.5l-23-13.3L52.6,44.6L52.6,44.6z
		 M54.2,11.8L29.7,25.9l24.5,14.2l24.5-14.2L54.2,11.8L54.2,11.8z M28.1,28.6v26.5l23-13.3l-8.9-5.1L28.1,28.6L28.1,28.6z M83,24.8
		C82.9,24.8,82.9,24.8,83,24.8C82.9,24.8,82.9,24.8,83,24.8c-0.2-0.1-0.2-0.2-0.3-0.3h0L55,8.6c-0.5-0.3-1.1-0.3-1.6,0l-27.6,16
		c0,0,0,0,0,0c-0.1,0.1-0.2,0.1-0.2,0.2c0,0-0.1,0-0.1,0.1c0,0,0,0,0,0c-0.3,0.3-0.4,0.7-0.4,1.1v31.9c0,0.1,0,0.3,0.1,0.4
		c0.1,0.4,0.4,0.7,0.7,0.9c0,0,0,0,0,0l27.6,16c0,0,0,0,0,0c0.2,0.1,0.5,0.2,0.8,0.2c0.3,0,0.5-0.1,0.8-0.2c0,0,0,0,0,0l27.6-16
		c0.5-0.3,0.8-0.8,0.8-1.4V25.9C83.4,25.5,83.2,25.1,83,24.8z"/>
	<path class="st0" d="M115.1,41.6c0,1.2,0.9,2.1,2.1,2.1h19c1.4,0,2.6-1.2,2.4-2.6c-1.1-11.1-8.9-16.3-17.4-16.3
		c-10.8,0-17.7,8-17.7,17c0,8.8,7,17,17.7,17c5.6,0,10.2-2.2,13.2-5.5c0.5-0.5,0.7-1.1,0.7-1.7c0-0.8-0.5-1.7-1.3-2.1
		c-1-0.5-2.2-0.2-2.9,0.6c-2.4,2.6-5.9,3.9-9.7,3.9c-7.3,0-12.7-4.7-12.7-12.5c0-5.8,3.9-11.2,11.4-11.7c0.4,0,0.8,0,1.2,0
		c6.6,0,11.4,4,12.4,9.9h-16.4C116.1,39.5,115.1,40.5,115.1,41.6z"/>
	<path class="st0" d="M225.1,41.6c0,1.2,0.9,2.1,2.1,2.1h19c1.4,0,2.6-1.2,2.4-2.6c-1.1-11.1-8.9-16.3-17.4-16.3
		c-10.8,0-17.7,8-17.7,17c0,8.8,7,17,17.7,17c5.6,0,10.2-2.2,13.2-5.5c0.5-0.5,0.7-1.1,0.7-1.7c0-0.8-0.5-1.7-1.3-2.1
		c-1-0.5-2.2-0.2-2.9,0.6c-2.4,2.6-5.9,3.9-9.7,3.9c-7.3,0-12.7-4.7-12.7-12.5c0-5.8,3.9-11.2,11.4-11.7c0.4,0,0.8,0,1.2,0
		c6.6,0,11.4,4,12.4,9.9h-16.4C226,39.5,225.1,40.5,225.1,41.6z"/>
	<path class="st0" d="M349.2,41.6c0,1.2,0.9,2.1,2.1,2.1h19c1.4,0,2.6-1.2,2.4-2.6c-1.1-11.1-8.9-16.3-17.4-16.3
		c-10.8,0-17.7,8-17.7,17c0,8.8,7,17,17.7,17c5.6,0,10.2-2.2,13.2-5.5c0.5-0.5,0.7-1.1,0.7-1.7c0-0.8-0.5-1.7-1.3-2.1
		c-1-0.5-2.2-0.2-2.9,0.6c-2.4,2.6-5.9,3.9-9.7,3.9c-7.3,0-12.7-4.7-12.7-12.5c0-5.8,3.9-11.2,11.4-11.7c0.4,0,0.8,0,1.2,0
		c6.6,0,11.4,4,12.4,9.9h-16.4C350.1,39.5,349.2,40.5,349.2,41.6z"/>
	<path class="st0" d="M173.7,48.7c0,6.4-5.4,10-14.9,10c-4.1,0-8.7-0.9-11.8-3c-1.2-0.8-1.5-2.5-0.6-3.7c0.8-1,2.3-1.3,3.4-0.6
		c2.2,1.5,5.3,2.5,9,2.5c6.3,0,9.8-1.9,9.8-4.8c0-2.7-2.1-4.3-9-5.5l-1.3-0.3c-9.9-1.9-12.3-4.3-12.3-9.6c0-6,5.9-8.9,13.9-8.9
		c4.1,0,7.5,0.9,10.3,2.5c1.3,0.8,1.6,2.6,0.6,3.8c-0.8,0.9-2.1,1.2-3.2,0.6c-2.1-1.2-4.9-2.1-7.8-2.1c-5.4,0-8.7,1.5-8.7,4.2
		c0,1.9,2.2,3.6,7.9,4.6l1.4,0.3C170.1,40.7,173.7,43.1,173.7,48.7z"/>
	<path class="st0" d="M207.7,48.7c0,6.4-5.4,10-14.9,10c-4.1,0-8.7-0.9-11.8-3c-1.2-0.8-1.5-2.5-0.6-3.7c0.8-1,2.3-1.3,3.4-0.6
		c2.2,1.5,5.3,2.5,9,2.5c6.3,0,9.8-1.9,9.8-4.8c0-2.7-2.1-4.3-9-5.5l-1.3-0.3c-9.9-1.9-12.3-4.3-12.3-9.6c0-6,5.9-8.9,13.9-8.9
		c4.1,0,7.5,0.9,10.3,2.5c1.3,0.8,1.6,2.6,0.6,3.8c-0.8,0.9-2.1,1.2-3.2,0.6c-2.1-1.2-4.9-2.1-7.8-2.1c-5.4,0-8.7,1.5-8.7,4.2
		c0,1.9,2.2,3.6,7.9,4.6l1.4,0.3C204,40.7,207.7,43.1,207.7,48.7z"/>
	<path class="st0" d="M328.7,51c1.3,0.9,1.3,2.8,0.1,3.9c-3,2.4-6.9,3.9-11.6,3.9c-10.7,0-17.8-8.3-17.8-17c0-9,7-17,17.8-17
		c4.6,0,8.5,1.6,11.5,4c1.2,1,1.2,2.9,0,3.8c-0.9,0.6-2.1,0.6-2.9-0.1c-2.2-1.8-5.1-2.9-8.5-2.9c-7.6,0-12.6,4.6-12.6,12.1
		c0,7.5,5.5,12.1,12.6,12.1c3.3,0,6.4-0.9,8.6-2.8C326.7,50.4,327.8,50.4,328.7,51z"/>
	<path class="st0" d="M275.2,29.8c-7.8,0-11.3,3.7-11.3,12v13.4c0,1.4-1.1,2.6-2.6,2.6c-1.4,0-2.6-1.2-2.6-2.6V40.7
		c0-11,7.4-15.8,16.5-15.8c9.1,0,16.5,4.8,16.5,15.8v14.5c0,1.4-1.2,2.6-2.6,2.6c-1.4,0-2.6-1.2-2.6-2.6V41.8
		C286.6,33.5,283,29.8,275.2,29.8z"/>
	<path class="st0" d="M374.9,28c0.6,0,0.8-0.2,0.8-0.7c0-0.4-0.2-0.6-0.8-0.6h-1.1V28H374.9L374.9,28z M375.6,28.4l0.7,1.4h-0.5
		c-0.1,0-0.2-0.1-0.3-0.2l-0.5-1.1c0,0-0.1,0-0.1,0h-1.1v1c0,0.2-0.1,0.3-0.3,0.3c-0.2,0-0.3-0.1-0.3-0.3v-3.3h1.7
		c1,0,1.4,0.4,1.4,1.1C376.3,27.8,376.1,28.2,375.6,28.4z"/>
	<path class="st0" d="M374.6,25.1c-1.6,0-2.8,1.3-2.8,2.8c0,1.6,1.3,2.8,2.8,2.8c1.6,0,2.8-1.3,2.8-2.8
		C377.4,26.4,376.2,25.1,374.6,25.1L374.6,25.1z M374.6,31.3c-1.8,0-3.3-1.5-3.3-3.3c0-1.8,1.5-3.3,3.3-3.3c1.8,0,3.3,1.5,3.3,3.3
		C378,29.8,376.5,31.3,374.6,31.3z"/>
	<path class="st0" d="M235.1,73.9h-3.7v10.9c0,0.6-0.5,1-1,1H230c-0.6,0-1-0.5-1-1V73.9h-3.7c-0.6,0-1-0.5-1-1c0-0.6,0.5-1,1-1h9.7
		c0.6,0,1,0.5,1,1C236.1,73.4,235.6,73.9,235.1,73.9z"/>
	<path class="st0" d="M262.8,73.4v12c0,0.6-0.5,1-1,1h-0.4c-0.6,0-1-0.5-1-1v-12c0-0.6,0.5-1,1-1h0.4
		C262.3,72.4,262.8,72.8,262.8,73.4z"/>
	<path class="st0" d="M297.9,84.7L297.9,84.7c0,0.6-0.5,1-1,1h-8.6v-13c0-0.6,0.5-1,1-1h0.4c0.6,0,1,0.5,1,1v10.9h6.2
		C297.5,83.7,297.9,84.1,297.9,84.7z"/>
	<path class="st0" d="M321.4,73.4v4h6.6c0.6,0,1,0.5,1,1s-0.5,1-1,1h-6.6v4h7.6c0.6,0,1,0.5,1,1s-0.5,1-1,1h-10v-14h10
		c0.6,0,1,0.5,1,1c0,0.6-0.5,1-1,1H321.4z"/>
	<path class="st0" d="M361,81.5c0,2.7-2.3,4.5-6.4,4.5c-1.8,0-3.7-0.4-5.1-1.3c-0.5-0.4-0.6-1.1-0.1-1.5l0.2-0.2
		c0.4-0.4,0.9-0.4,1.3-0.1c1,0.7,2.4,1.2,3.7,1.2c2.4,0,4-0.8,4-2.1c0-1.2-0.9-1.8-3.7-2.2l-0.6-0.1c-4.3-0.6-5.3-1.8-5.3-4
		c0-2.6,2.3-4.2,5.9-4.2c1.7,0,3.2,0.4,4.4,1c0.6,0.3,0.7,1.1,0.2,1.6l-0.2,0.2c-0.3,0.3-0.8,0.4-1.2,0.1c-1-0.6-2.3-0.9-3.2-0.9
		c-2.7,0-3.6,0.9-3.6,1.9c0,1.2,0.5,1.6,3.2,2l0.6,0.1C359.3,78.1,361,79,361,81.5z"/>
</g>
</svg>
